<svg width="372" height="174" viewBox="0 0 372 174" fill="none" xmlns="http://www.w3.org/2000/svg">
<path d="M78.732 100.4C57.632 100.4 41.932 84.6 41.932 63.9C41.932 43.3 57.632 27.6 78.432 27.6C97.332 27.6 109.132 39.2 112.332 50.3L98.932 53.6C96.632 46.8 89.132 40.5 78.532 40.5C64.732 40.5 55.932 51.2 55.932 63.8C55.932 76.4 64.732 87.5 78.532 87.5C89.132 87.5 96.632 81.4 98.932 74.5L112.232 77.9C109.032 89.1 97.232 100.4 78.732 100.4ZM155.783 100.4C134.583 100.4 118.983 84.6 118.983 63.9C118.983 43.3 134.583 27.6 155.783 27.6C176.883 27.6 192.483 43.3 192.483 63.9C192.483 84.6 176.883 100.4 155.783 100.4ZM155.783 87.7C169.583 87.7 178.683 77.3 178.683 63.9C178.683 50.8 169.583 40.3 155.783 40.3C141.883 40.3 132.883 50.8 132.883 63.9C132.883 77.3 141.883 87.7 155.783 87.7ZM232.947 29C253.347 29 266.447 43.4 266.447 64C266.447 84.2 253.547 99 232.947 99H202.547V29H232.947ZM232.647 86.6C244.647 86.6 252.647 77.2 252.647 63.7C252.647 50.4 244.647 41.3 232.647 41.3H216.147V86.6H232.647ZM328.17 41.4H289.97V57.4H323.07V69.4H289.97V86.6H328.07V99H276.57V29H328.17V41.4Z" fill="url(#paint0_linear_1_9)"/>
<path d="M46.1411 155L31.8311 132.95H18.4211V155H6.18106V92H36.8711C50.5511 92 58.4711 102.53 58.4711 112.52C58.4711 120.8 53.6111 128.63 44.7011 131.69L60.3611 155H46.1411ZM18.4211 103.07V122.15H36.0611C42.4511 122.15 46.5011 117.74 46.5011 112.52C46.5011 107.48 42.3611 103.07 36.5111 103.07H18.4211ZM106.106 92H119.966L96.1157 131.87V155H83.6057V131.87L59.6657 92H73.6157L89.9057 119.99L106.106 92ZM153.512 92C171.872 92 183.662 104.96 183.662 123.5C183.662 141.68 172.052 155 153.512 155H126.152V92H153.512ZM153.242 143.84C164.042 143.84 171.242 135.38 171.242 123.23C171.242 111.26 164.042 103.07 153.242 103.07H138.392V143.84H153.242ZM234.353 92H246.773V129.17C246.773 145.19 237.053 156.26 219.503 156.26C201.863 156.26 192.233 145.19 192.233 129.17V92H204.743V128.99C204.743 138.26 209.693 144.92 219.503 144.92C229.403 144.92 234.353 138.26 234.353 128.99V92ZM297.86 155L283.55 132.95H270.14V155H257.9V92H288.59C302.27 92 310.19 102.53 310.19 112.52C310.19 120.8 305.33 128.63 296.42 131.69L312.08 155H297.86ZM270.14 103.07V122.15H287.78C294.17 122.15 298.22 117.74 298.22 112.52C298.22 107.48 294.08 103.07 288.23 103.07H270.14ZM334.788 144.02H368.718V155H317.688V146.72L350.808 102.98H318.318V92H367.818V100.37L334.788 144.02Z" fill="url(#paint1_linear_1_9)"/>
<defs>
<linearGradient id="paint0_linear_1_9" x1="185.5" y1="0" x2="185.5" y2="120" gradientUnits="userSpaceOnUse">
<stop offset="0.49" stop-color="white"/>
<stop offset="1" stop-color="#999999"/>
</linearGradient>
<linearGradient id="paint1_linear_1_9" x1="186" y1="66" x2="186" y2="174" gradientUnits="userSpaceOnUse">
<stop stop-color="#F10003"/>
<stop offset="1" stop-color="#FF8E99"/>
</linearGradient>
</defs>
</svg>
